<svg xmlns="http://www.w3.org/2000/svg" xmlns:xlink="http://www.w3.org/1999/xlink" width="174.473" height="53.334" viewBox="0 0 174.473 53.334"><defs><clipPath id="a"><rect width="174.473" height="53.334" fill="none"/></clipPath><clipPath id="c"><rect width="74.152" height="22.092" fill="none"/></clipPath><clipPath id="e"><rect width="74.092" height="21.384" fill="none"/></clipPath><clipPath id="f"><rect width="74.093" height="21.384" fill="none"/></clipPath></defs><g clip-path="url(#a)"><g clip-path="url(#a)"><path d="M103.9,91.954c4.351-2.377,2.285-3.534-.052-5.7a11.45,11.45,0,0,1-4.1-8.332A10.336,10.336,0,0,1,100,75.677c-.1,0-.2.01-.307.017L25.82,77.762c-3.187-.031-6.3,1.942-6.432,4.407V99.3a4.092,4.092,0,0,0,2.475,3.949c.13.008.258.019.392.02l70.038,5.137,6.8.5a7.873,7.873,0,0,0,1.319-.1,8.008,8.008,0,0,0,3.492-1.334V91.954Z" transform="translate(-17 -66.376)" fill="#d5130d"/><path d="M794.637,164.494a5.53,5.53,0,0,0-5.952-5.585l-1.048,0a5.068,5.068,0,0,1,4.6,4.927l.027,15.414a5.973,5.973,0,0,1-5.822,5.618l-74.058,4.09a4.774,4.774,0,0,1-5.289-4.976v3.129a5.292,5.292,0,0,0,5.657,5.585l75.945-4.591a6.421,6.421,0,0,0,5.97-6.306Z" transform="translate(-620.191 -139.369)" fill="#fed170"/><path d="M792.234,162.418a5.068,5.068,0,0,0-4.6-4.927l-63.235-.206c-3.713,6.181-11.764,8.164-17.31,8.164v17.115a4.774,4.774,0,0,0,5.289,4.976l74.058-4.09a5.973,5.973,0,0,0,5.822-5.618Z" transform="translate(-620.191 -137.955)" fill="#ff780a"/><path d="M82.522,49.411,6.615,51.637C3.34,51.6.14,53.727.006,56.381V75.34c-.129,2.545,1.809,4.647,4.857,4.845a4.092,4.092,0,0,1-2.475-3.949V59.106c.131-2.465,3.245-4.438,6.432-4.407l73.6-2.06A11.014,11.014,0,0,1,83.656,49.4a8.205,8.205,0,0,0-1.133.016" transform="translate(0 -43.313)" fill="#fed170"/><path d="M108.553,140.8h-7.491V128.461a2.2,2.2,0,0,0-.734-1.662,2.9,2.9,0,0,0-1.855-.607.4.4,0,0,0-.446.419v16.61a.135.135,0,0,0,.135.135h10.4a.176.176,0,0,0,.176-.176v-2.2a.18.18,0,0,0-.18-.18" transform="translate(-85.98 -110.684)" fill="#fff"/><path d="M196,158.8a2.257,2.257,0,0,0-.317.45c-.3-.205-.578-.384-.79-.508a6.816,6.816,0,0,0-6.72,0,6.474,6.474,0,0,0-2.4,2.431,6.888,6.888,0,0,0-.877,3.447,6.667,6.667,0,0,0,.878,3.359,6.6,6.6,0,0,0,2.4,2.428,6.482,6.482,0,0,0,3.35.9,6.608,6.608,0,0,0,3.373-.886c.18-.1.351-.219.517-.339v.184a.859.859,0,0,0,.857.861h.88a.859.859,0,0,0,.857-.861V158.09h-.276A2.346,2.346,0,0,0,196,158.8m-.949,8a4.142,4.142,0,0,1-1.439,1.575,3.763,3.763,0,0,1-2.066.582,3.806,3.806,0,0,1-2.1-.595,4.16,4.16,0,0,1-1.451-1.611,4.754,4.754,0,0,1-.526-2.205,4.689,4.689,0,0,1,.513-2.179,4.016,4.016,0,0,1,1.435-1.571,3.878,3.878,0,0,1,2.106-.583,3.712,3.712,0,0,1,2.075.605,4.267,4.267,0,0,1,1.453,1.626,4.7,4.7,0,0,1,.526,2.179,4.6,4.6,0,0,1-.525,2.176" transform="translate(-162.172 -138.458)" fill="#fff"/><path d="M448.814,158.745h0a7.076,7.076,0,0,0-6.856,0,6.538,6.538,0,0,0-2.448,2.431,6.779,6.779,0,0,0-.894,3.447,6.568,6.568,0,0,0,.895,3.359,6.732,6.732,0,0,0,5.863,3.328,6.847,6.847,0,0,0,3.441-.886,6.516,6.516,0,0,0,2.448-2.445,6.809,6.809,0,0,0,.893-3.434,6.635,6.635,0,0,0-.894-3.37,6.547,6.547,0,0,0-2.448-2.431m.16,8.054a4.174,4.174,0,0,1-1.468,1.575,3.9,3.9,0,0,1-2.108.582,3.941,3.941,0,0,1-2.146-.595,4.183,4.183,0,0,1-1.48-1.611,4.675,4.675,0,0,1-.537-2.205,4.613,4.613,0,0,1,.524-2.179,3.987,3.987,0,0,1,3.613-2.155,3.842,3.842,0,0,1,2.117.605,4.3,4.3,0,0,1,1.483,1.626,4.624,4.624,0,0,1,.537,2.179,4.529,4.529,0,0,1-.535,2.176" transform="translate(-384.71 -138.458)" fill="#fff"/><path d="M565.378,160.452a2.151,2.151,0,0,0-.589,1.5v10.265a.557.557,0,0,0,.556.558h1.483a.557.557,0,0,0,.556-.558V159.74h-.276a2.346,2.346,0,0,0-1.728.712" transform="translate(-495.377 -140.108)" fill="#fff"/><path d="M563.356,117.776a2.443,2.443,0,0,0-.437-.058,1.619,1.619,0,0,0-1.215.534,1.763,1.763,0,0,0-.5,1.247,1.589,1.589,0,0,0,.491,1.165,1.666,1.666,0,0,0,1.109.51c.059.006.118.008.175.008a1.7,1.7,0,0,0,1.151-.437h0a1.627,1.627,0,0,0,.574-1.273,1.761,1.761,0,0,0-1.351-1.7" transform="translate(-492.236 -103.25)" fill="#fff"/><path d="M619.8,158.295c-.1-.009-.266-.017-.558-.017a4.7,4.7,0,0,0-2.439.7,4.4,4.4,0,0,0-1.128.975v-.708a.783.783,0,0,0-.781-.784h-1.007a.783.783,0,0,0-.781.784V171.5h.269a2.376,2.376,0,0,0,1.737-.7,2.107,2.107,0,0,0,.588-1.491v-4.187a5.207,5.207,0,0,1,.85-3.013,2.918,2.918,0,0,1,2.614-1.167c.136,0,.357.016.656.049h0a.431.431,0,0,0,.432-.319v-1.9a.56.56,0,0,0-.454-.475" transform="translate(-537.757 -138.826)" fill="#fff"/><path d="M346.139,124.487h7.007a.986.986,0,0,0,.984-.984v-1.1a.986.986,0,0,0-.984-.984h-10.8a.985.985,0,0,0-.982.982v16.209a.6.6,0,0,0,.636.558h1.722a.571.571,0,0,0,.607-.558v-4.091a1.814,1.814,0,0,1,1.813-1.786h3.16a2.916,2.916,0,0,0,2.819-2.311.652.652,0,0,0-.067-.542.623.623,0,0,0-.535-.207h-5.378a1.818,1.818,0,0,1-1.813-1.793v-1.608a1.814,1.814,0,0,1,1.813-1.786" transform="translate(-299.407 -106.498)" fill="#fff"/><path d="M888.817,233.7a7.425,7.425,0,0,0-6.906,0,6.446,6.446,0,0,0-2.466,2.336,6.288,6.288,0,0,0-.9,3.313,6.1,6.1,0,0,0,.9,3.229,6.564,6.564,0,0,0,2.463,2.333,7.016,7.016,0,0,0,3.442.866,7.155,7.155,0,0,0,3.466-.852,6.42,6.42,0,0,0,2.466-2.35,6.308,6.308,0,0,0,.9-3.3,6.148,6.148,0,0,0-.9-3.239,6.448,6.448,0,0,0-2.465-2.336m.162,7.741a4.159,4.159,0,0,1-7.254-.046,4.327,4.327,0,0,1-.54-2.12,4.268,4.268,0,0,1,.527-2.095,3.969,3.969,0,0,1,1.474-1.51,4.189,4.189,0,0,1,2.165-.561,4,4,0,0,1,2.132.582,4.2,4.2,0,0,1,1.494,1.563,4.286,4.286,0,0,1,.541,2.095,4.2,4.2,0,0,1-.539,2.092" transform="translate(-770.573 -204.23)" fill="#fff"/><path d="M1012.13,234.852h0a1.951,1.951,0,0,0-.654,1.482v5.037a3.242,3.242,0,0,1-.935,2.383,3.157,3.157,0,0,1-2.372.943,2.868,2.868,0,0,1-2.257-.846,3.382,3.382,0,0,1-.789-2.356v-4.952a2.3,2.3,0,0,0-.762-1.8,2.194,2.194,0,0,0-1.431-.494h-.395v7.661a5.149,5.149,0,0,0,1.328,3.674,4.941,4.941,0,0,0,3.758,1.42,5.094,5.094,0,0,0,3.88-1.589v1.131a.236.236,0,0,0,.237.236h2.087a.236.236,0,0,0,.237-.236v-12.3h-.394a2.2,2.2,0,0,0-1.538.6" transform="translate(-879.325 -205.463)" fill="#fff"/><path d="M1117.835,194.323a2.558,2.558,0,0,0-.441-.056,1.726,1.726,0,0,0-1.723,1.711,1.494,1.494,0,0,0,.494,1.12,1.72,1.72,0,0,0,1.117.491c.059.005.117.008.175.008a1.766,1.766,0,0,0,1.16-.42h0a1.535,1.535,0,0,0,.578-1.223,1.587,1.587,0,0,0-.387-1.04,1.729,1.729,0,0,0-.974-.591" transform="translate(-978.557 -170.392)" fill="#fff"/><path d="M1168.331,196.581h-.8a.918.918,0,0,0-.921.915v15.381a.918.918,0,0,0,.921.916h.8a.918.918,0,0,0,.921-.916V197.5a.918.918,0,0,0-.921-.915" transform="translate(-1023.238 -172.422)" fill="#fff"/><path d="M1215.432,196.581h-1.367a.634.634,0,0,0-.636.632v15.947a.634.634,0,0,0,.636.633h1.367a.634.634,0,0,0,.636-.633V197.213a.634.634,0,0,0-.636-.632" transform="translate(-1064.301 -172.422)" fill="#fff"/><path d="M1119.864,235.342a2.016,2.016,0,0,0-.591,1.442v9.65a.754.754,0,0,0,.757.752h1.1a.754.754,0,0,0,.757-.752V234.653h-.287a2.406,2.406,0,0,0-1.736.689" transform="translate(-981.716 -205.814)" fill="#fff"/><path d="M1263.155,234.592a5.427,5.427,0,0,0-2.144-2.321,6.6,6.6,0,0,0-3.4-.834,6.23,6.23,0,0,0-3.286.9,6.523,6.523,0,0,0-2.311,2.372,6.4,6.4,0,0,0,2.44,8.791,6.873,6.873,0,0,0,3.418.868,6.777,6.777,0,0,0,3.242-.789,5.3,5.3,0,0,0,2.055-1.951.1.1,0,0,1,0-.009.676.676,0,0,0-.246-.918l-.242-.112-.733-.33a.8.8,0,0,0-.983.273,3.035,3.035,0,0,1-1.132,1.081,4.074,4.074,0,0,1-1.992.468,4.174,4.174,0,0,1-2-.483,3.93,3.93,0,0,1-1.448-1.316,3.6,3.6,0,0,1-.55-1.486c.069,0,.131.016.205.016h9.737l.048-.325a4.675,4.675,0,0,0,.03-.621,7.371,7.371,0,0,0-.715-3.272m-9.209,2.005a3.91,3.91,0,0,1,.565-1.249,4.031,4.031,0,0,1,1.355-1.206,3.589,3.589,0,0,1,1.746-.444,3.492,3.492,0,0,1,2.524.891,3.664,3.664,0,0,1,1.06,2.008Z" transform="translate(-1097.404 -202.993)" fill="#fff"/><path d="M786.676,201.159h6.956a.965.965,0,0,0,.976-.948V199.15a.965.965,0,0,0-.976-.948H782.908a.964.964,0,0,0-.975.947v15.628a.587.587,0,0,0,.631.538h1.709a.561.561,0,0,0,.6-.538v-3.944a1.776,1.776,0,0,1,1.8-1.722h3.137a2.875,2.875,0,0,0,2.8-2.228.612.612,0,0,0-.066-.523.628.628,0,0,0-.531-.2h-5.338a1.779,1.779,0,0,1-1.8-1.729v-1.55a1.776,1.776,0,0,1,1.8-1.722" transform="translate(-685.835 -173.843)" fill="#fff"/><path d="M682.688,0a12.442,12.442,0,0,0-10.833,6.082,11.017,11.017,0,0,0-1.239,3.244l.274-.008c.1-.007.2-.013.307-.017a10.485,10.485,0,0,1,1.264-3.144A11.886,11.886,0,0,1,682.689.566c6.482,0,11.736,4.941,11.736,10.978,0,12.377-11.9,15.934-19.325,15.95v.566a25.173,25.173,0,0,0,12.718-3.408,14.723,14.723,0,0,0,7.173-13.107C694.99,5.178,689.472,0,682.688,0" transform="translate(-588.199)" fill="#ff780a"/><path d="M685.08,4.6a11.578,11.578,0,0,0-11.49,8.735,10.342,10.342,0,0,0-.246,2.243,11.45,11.45,0,0,0,4.095,8.332c2.337,2.168,4.4,3.325.053,5.7v1.916c5.545,0,13.6-1.982,17.31-8.164a14.828,14.828,0,0,0,2.015-7.787c0-6.037-5.255-10.978-11.737-10.978" transform="translate(-590.591 -4.037)" fill="#fff"/><path d="M704.453,23.892h0a10.358,10.358,0,0,0-3.247-.139,9.055,9.055,0,0,0-7.931,6.515,7.54,7.54,0,0,0,.047,3.825,8.021,8.021,0,0,0,1.033,2.284,9.2,9.2,0,0,0,2.167,2.269c2.117,1.6,3.207,3.142,3.241,4.577a3.151,3.151,0,0,1-.834,2.155l-.325.379.494-.075a18.056,18.056,0,0,0,7.427-3.072,11.823,11.823,0,0,0,5.266-9.783c.24-4.127-2.983-8.052-7.336-8.935" transform="translate(-607.877 -20.774)" fill="#d5130d"/></g></g></svg>